# xmcd
#
# Track frame offsets:
# 150
# 11057
# 23170
# 36140
# 41777
# 53343
# 66578
# 68935
# 86047
# 89832
# 106809
# 123281
# 125114
# 136139
# 147656
# 158649
# 172718
# 187413
# 201827
# 219240
# 222205
# 236999
# 249431
# 253991
# 267353
# 278525
#
# Disc length: 3877 seconds
#
#
# Revision: 0
# Processed by: cddbd v1.5PL3 Copyright (c) Steve Scherf et al.
# Submitted via: FreeRIP 2.70 
#
DISCID=8e0f231a
DTITLE=Cash, Johnny - Johnny Cash Sings the Ballads of the True West 
DYEAR=1900
DGENRE=Country
TTITLE0=Hiawatha's Vision
TTITLE1=The Road to Kentuck
TTITLE2=The Shifting, Whispering Sands, Part 1
TTITLE3=Narration 1
TTITLE4=The Ballad of Boot Hill
TTITLE5=I Ride an Old Paint
TTITLE6=Narration 2
TTITLE7=Hardin Wouldn't Run
TTITLE8=Narration 3
TTITLE9=Mister Garfield
TTITLE10=The Streets of Laredo
TTITLE11=Narration 4
TTITLE12=Johnny Reb
TTITLE13=A Letter From Home
TTITLE14=Bury Me Not on the Lone Prairie
TTITLE15=Mean as Hell
TTITLE16=Sam Hall
TTITLE17=25 Minutes to Go
TTITLE18=The Blizzard
TTITLE19=Narration 5
TTITLE20=Sweet Betsy From Pike
TTITLE21=Green Grow the Lilacs
TTITLE22=Narration 6
TTITLE23=Stampede
TTITLE24=The Shifting, Whispering Sands, Part 2
TTITLE25=Reflections
EXTD=
EXTT0=
EXTT1=
EXTT2=
EXTT3=
EXTT4=
EXTT5=
EXTT6=
EXTT7=
EXTT8=
EXTT9=
EXTT10=
EXTT11=
EXTT12=
EXTT13=
EXTT14=
EXTT15=
EXTT16=
EXTT17=
EXTT18=
EXTT19=
EXTT20=
EXTT21=
EXTT22=
EXTT23=
EXTT24=
EXTT25=
PLAYORDER=
